<mxfile host="Electron" modified="2023-05-10T05:07:56.628Z" agent="Mozilla/5.0 (Windows NT 10.0; Win64; x64) AppleWebKit/537.36 (KHTML, like Gecko) draw.io/21.1.2 Chrome/106.0.5249.199 Electron/21.4.3 Safari/537.36" etag="cnwIIpR5WWv9Bek1GTQb" version="21.1.2" type="device" pages="6">
  <diagram id="k8nMN80PNwHwR34EJjps" name="Página-3">
    <mxGraphModel dx="1178" dy="648" grid="1" gridSize="10" guides="1" tooltips="1" connect="1" arrows="1" fold="1" page="1" pageScale="1" pageWidth="827" pageHeight="1169" math="0" shadow="0">
      <root>
        <mxCell id="0" />
        <mxCell id="1" parent="0" />
        <mxCell id="CtHg8HeN41WdrrBTfBHc-1" value="default&lt;br style=&quot;font-size: 15px;&quot;&gt;(default)" style="rounded=0;whiteSpace=wrap;html=1;fontSize=15;fillColor=#fff2cc;strokeColor=#d6b656;" parent="1" vertex="1">
          <mxGeometry x="40" y="410" width="120" height="60" as="geometry" />
        </mxCell>
        <mxCell id="CtHg8HeN41WdrrBTfBHc-2" style="edgeStyle=orthogonalEdgeStyle;rounded=0;orthogonalLoop=1;jettySize=auto;html=1;entryX=0.5;entryY=0;entryDx=0;entryDy=0;fillColor=#fff2cc;strokeColor=#d6b656;" parent="1" source="CtHg8HeN41WdrrBTfBHc-6" target="CtHg8HeN41WdrrBTfBHc-1" edge="1">
          <mxGeometry relative="1" as="geometry" />
        </mxCell>
        <mxCell id="CtHg8HeN41WdrrBTfBHc-3" style="edgeStyle=orthogonalEdgeStyle;rounded=0;orthogonalLoop=1;jettySize=auto;html=1;exitX=1;exitY=0.5;exitDx=0;exitDy=0;entryX=0.5;entryY=0;entryDx=0;entryDy=0;fillColor=#fff2cc;strokeColor=#d6b656;" parent="1" source="CtHg8HeN41WdrrBTfBHc-6" target="CtHg8HeN41WdrrBTfBHc-12" edge="1">
          <mxGeometry relative="1" as="geometry" />
        </mxCell>
        <mxCell id="CtHg8HeN41WdrrBTfBHc-4" style="edgeStyle=orthogonalEdgeStyle;rounded=0;orthogonalLoop=1;jettySize=auto;html=1;exitX=0.5;exitY=1;exitDx=0;exitDy=0;entryX=0.5;entryY=0;entryDx=0;entryDy=0;fillColor=#fff2cc;strokeColor=#d6b656;" parent="1" source="CtHg8HeN41WdrrBTfBHc-6" target="CtHg8HeN41WdrrBTfBHc-7" edge="1">
          <mxGeometry relative="1" as="geometry">
            <Array as="points">
              <mxPoint x="350" y="300" />
              <mxPoint x="350" y="355" />
              <mxPoint x="290" y="355" />
            </Array>
          </mxGeometry>
        </mxCell>
        <mxCell id="CtHg8HeN41WdrrBTfBHc-5" style="edgeStyle=orthogonalEdgeStyle;rounded=0;orthogonalLoop=1;jettySize=auto;html=1;exitX=0.75;exitY=1;exitDx=0;exitDy=0;fillColor=#fff2cc;strokeColor=#d6b656;" parent="1" source="CtHg8HeN41WdrrBTfBHc-6" target="CtHg8HeN41WdrrBTfBHc-13" edge="1">
          <mxGeometry relative="1" as="geometry" />
        </mxCell>
        <mxCell id="CtHg8HeN41WdrrBTfBHc-6" value="first-lab&lt;br&gt;(OnPush)" style="rounded=0;whiteSpace=wrap;html=1;fontSize=15;fillColor=#fff2cc;strokeColor=#d6b656;" parent="1" vertex="1">
          <mxGeometry x="320" y="240" width="120" height="60" as="geometry" />
        </mxCell>
        <mxCell id="CtHg8HeN41WdrrBTfBHc-7" value="on-push&lt;br style=&quot;font-size: 15px;&quot;&gt;(OnPush)" style="rounded=0;whiteSpace=wrap;html=1;fontSize=15;fillColor=#fff2cc;strokeColor=#d6b656;" parent="1" vertex="1">
          <mxGeometry x="200" y="410" width="180" height="60" as="geometry" />
        </mxCell>
        <mxCell id="CtHg8HeN41WdrrBTfBHc-8" style="edgeStyle=orthogonalEdgeStyle;rounded=0;orthogonalLoop=1;jettySize=auto;html=1;entryX=0.5;entryY=0;entryDx=0;entryDy=0;fillColor=#fff2cc;strokeColor=#d6b656;" parent="1" source="CtHg8HeN41WdrrBTfBHc-9" target="CtHg8HeN41WdrrBTfBHc-6" edge="1">
          <mxGeometry relative="1" as="geometry" />
        </mxCell>
        <mxCell id="CtHg8HeN41WdrrBTfBHc-9" value="AppComponent" style="rounded=0;whiteSpace=wrap;html=1;fontSize=15;fillColor=#fff2cc;strokeColor=#d6b656;" parent="1" vertex="1">
          <mxGeometry x="320" y="90" width="120" height="60" as="geometry" />
        </mxCell>
        <mxCell id="CtHg8HeN41WdrrBTfBHc-12" value="no-event&lt;br style=&quot;font-size: 15px;&quot;&gt;(default)" style="rounded=0;whiteSpace=wrap;html=1;fontSize=15;fillColor=#fff2cc;strokeColor=#d6b656;" parent="1" vertex="1">
          <mxGeometry x="640" y="410" width="120" height="60" as="geometry" />
        </mxCell>
        <mxCell id="CtHg8HeN41WdrrBTfBHc-13" value="signal&lt;br&gt;(default)" style="rounded=0;whiteSpace=wrap;html=1;fontSize=15;fillColor=#fff2cc;strokeColor=#d6b656;" parent="1" vertex="1">
          <mxGeometry x="420" y="410" width="180" height="60" as="geometry" />
        </mxCell>
        <mxCell id="CtHg8HeN41WdrrBTfBHc-16" style="edgeStyle=orthogonalEdgeStyle;rounded=0;orthogonalLoop=1;jettySize=auto;html=1;entryX=0.5;entryY=1;entryDx=0;entryDy=0;" parent="1" source="CtHg8HeN41WdrrBTfBHc-15" target="CtHg8HeN41WdrrBTfBHc-12" edge="1">
          <mxGeometry relative="1" as="geometry" />
        </mxCell>
        <mxCell id="CtHg8HeN41WdrrBTfBHc-15" value="Event no&lt;br&gt;&amp;nbsp;data biding" style="shape=note;whiteSpace=wrap;html=1;backgroundOutline=1;darkOpacity=0.05;" parent="1" vertex="1">
          <mxGeometry x="635" y="535" width="130" height="50" as="geometry" />
        </mxCell>
      </root>
    </mxGraphModel>
  </diagram>
  <diagram id="IHgVpozmYkwtg2LrYr5N" name="Página-2">
    <mxGraphModel dx="1178" dy="648" grid="1" gridSize="10" guides="1" tooltips="1" connect="1" arrows="1" fold="1" page="1" pageScale="1" pageWidth="827" pageHeight="1169" math="0" shadow="0">
      <root>
        <mxCell id="0" />
        <mxCell id="1" parent="0" />
        <mxCell id="b8hFqYhQcJXFBln2sQw1-14" value="default&lt;br style=&quot;font-size: 15px;&quot;&gt;(default)" style="rounded=0;whiteSpace=wrap;html=1;fontSize=15;fillColor=#d5e8d4;strokeColor=#82b366;" parent="1" vertex="1">
          <mxGeometry x="40" y="410" width="120" height="60" as="geometry" />
        </mxCell>
        <mxCell id="b8hFqYhQcJXFBln2sQw1-15" style="edgeStyle=orthogonalEdgeStyle;rounded=0;orthogonalLoop=1;jettySize=auto;html=1;entryX=0.5;entryY=0;entryDx=0;entryDy=0;" parent="1" source="b8hFqYhQcJXFBln2sQw1-19" target="b8hFqYhQcJXFBln2sQw1-14" edge="1">
          <mxGeometry relative="1" as="geometry" />
        </mxCell>
        <mxCell id="b8hFqYhQcJXFBln2sQw1-16" style="edgeStyle=orthogonalEdgeStyle;rounded=0;orthogonalLoop=1;jettySize=auto;html=1;exitX=1;exitY=0.5;exitDx=0;exitDy=0;entryX=0.5;entryY=0;entryDx=0;entryDy=0;" parent="1" source="b8hFqYhQcJXFBln2sQw1-19" target="b8hFqYhQcJXFBln2sQw1-25" edge="1">
          <mxGeometry relative="1" as="geometry" />
        </mxCell>
        <mxCell id="b8hFqYhQcJXFBln2sQw1-17" style="edgeStyle=orthogonalEdgeStyle;rounded=0;orthogonalLoop=1;jettySize=auto;html=1;exitX=0.5;exitY=1;exitDx=0;exitDy=0;entryX=0.5;entryY=0;entryDx=0;entryDy=0;" parent="1" source="b8hFqYhQcJXFBln2sQw1-19" target="b8hFqYhQcJXFBln2sQw1-20" edge="1">
          <mxGeometry relative="1" as="geometry">
            <Array as="points">
              <mxPoint x="350" y="300" />
              <mxPoint x="350" y="355" />
              <mxPoint x="290" y="355" />
            </Array>
          </mxGeometry>
        </mxCell>
        <mxCell id="b8hFqYhQcJXFBln2sQw1-18" style="edgeStyle=orthogonalEdgeStyle;rounded=0;orthogonalLoop=1;jettySize=auto;html=1;exitX=0.75;exitY=1;exitDx=0;exitDy=0;" parent="1" source="b8hFqYhQcJXFBln2sQw1-19" target="b8hFqYhQcJXFBln2sQw1-26" edge="1">
          <mxGeometry relative="1" as="geometry" />
        </mxCell>
        <mxCell id="b8hFqYhQcJXFBln2sQw1-19" value="first-lab&lt;br&gt;(OnPush)" style="rounded=0;whiteSpace=wrap;html=1;fontSize=15;fillColor=#d5e8d4;strokeColor=#82b366;" parent="1" vertex="1">
          <mxGeometry x="320" y="240" width="120" height="60" as="geometry" />
        </mxCell>
        <mxCell id="b8hFqYhQcJXFBln2sQw1-20" value="on-push&lt;br&gt;(OnPush)" style="rounded=0;whiteSpace=wrap;html=1;fontSize=15;fillColor=#fff2cc;strokeColor=#d6b656;" parent="1" vertex="1">
          <mxGeometry x="200" y="410" width="180" height="60" as="geometry" />
        </mxCell>
        <mxCell id="b8hFqYhQcJXFBln2sQw1-21" style="edgeStyle=orthogonalEdgeStyle;rounded=0;orthogonalLoop=1;jettySize=auto;html=1;entryX=0.5;entryY=0;entryDx=0;entryDy=0;" parent="1" source="b8hFqYhQcJXFBln2sQw1-22" target="b8hFqYhQcJXFBln2sQw1-19" edge="1">
          <mxGeometry relative="1" as="geometry" />
        </mxCell>
        <mxCell id="b8hFqYhQcJXFBln2sQw1-22" value="AppComponent" style="rounded=0;whiteSpace=wrap;html=1;fontSize=15;fillColor=#d5e8d4;strokeColor=#82b366;" parent="1" vertex="1">
          <mxGeometry x="320" y="90" width="120" height="60" as="geometry" />
        </mxCell>
        <mxCell id="b8hFqYhQcJXFBln2sQw1-23" style="edgeStyle=orthogonalEdgeStyle;rounded=0;orthogonalLoop=1;jettySize=auto;html=1;entryX=0.808;entryY=0.033;entryDx=0;entryDy=0;entryPerimeter=0;" parent="1" source="b8hFqYhQcJXFBln2sQw1-24" target="b8hFqYhQcJXFBln2sQw1-19" edge="1">
          <mxGeometry relative="1" as="geometry" />
        </mxCell>
        <mxCell id="b8hFqYhQcJXFBln2sQw1-24" value="Event" style="shape=note;whiteSpace=wrap;html=1;backgroundOutline=1;darkOpacity=0.05;" parent="1" vertex="1">
          <mxGeometry x="470" y="170" width="120" height="50" as="geometry" />
        </mxCell>
        <mxCell id="b8hFqYhQcJXFBln2sQw1-25" value="no-event&lt;br style=&quot;border-color: var(--border-color);&quot;&gt;(default)" style="rounded=0;whiteSpace=wrap;html=1;fontSize=15;fillColor=#d5e8d4;strokeColor=#82b366;" parent="1" vertex="1">
          <mxGeometry x="640" y="410" width="120" height="60" as="geometry" />
        </mxCell>
        <mxCell id="b8hFqYhQcJXFBln2sQw1-26" value="signal&lt;br style=&quot;font-size: 15px;&quot;&gt;(default)" style="rounded=0;whiteSpace=wrap;html=1;fontSize=15;fillColor=#d5e8d4;strokeColor=#82b366;" parent="1" vertex="1">
          <mxGeometry x="420" y="410" width="180" height="60" as="geometry" />
        </mxCell>
      </root>
    </mxGraphModel>
  </diagram>
  <diagram id="m1eGK2IejqFt0429g1te" name="Página-6">
    <mxGraphModel dx="1178" dy="648" grid="1" gridSize="10" guides="1" tooltips="1" connect="1" arrows="1" fold="1" page="1" pageScale="1" pageWidth="827" pageHeight="1169" math="0" shadow="0">
      <root>
        <mxCell id="0" />
        <mxCell id="1" parent="0" />
        <mxCell id="59h093CTfcIkqCsHOPJD-1" value="default&lt;br style=&quot;font-size: 15px;&quot;&gt;(default)" style="rounded=0;whiteSpace=wrap;html=1;fontSize=15;fillColor=#d5e8d4;strokeColor=#82b366;" parent="1" vertex="1">
          <mxGeometry x="40" y="410" width="120" height="60" as="geometry" />
        </mxCell>
        <mxCell id="59h093CTfcIkqCsHOPJD-2" style="edgeStyle=orthogonalEdgeStyle;rounded=0;orthogonalLoop=1;jettySize=auto;html=1;entryX=0.5;entryY=0;entryDx=0;entryDy=0;" parent="1" source="59h093CTfcIkqCsHOPJD-6" target="59h093CTfcIkqCsHOPJD-1" edge="1">
          <mxGeometry relative="1" as="geometry" />
        </mxCell>
        <mxCell id="59h093CTfcIkqCsHOPJD-3" style="edgeStyle=orthogonalEdgeStyle;rounded=0;orthogonalLoop=1;jettySize=auto;html=1;exitX=1;exitY=0.5;exitDx=0;exitDy=0;entryX=0.5;entryY=0;entryDx=0;entryDy=0;" parent="1" source="59h093CTfcIkqCsHOPJD-6" target="59h093CTfcIkqCsHOPJD-12" edge="1">
          <mxGeometry relative="1" as="geometry" />
        </mxCell>
        <mxCell id="59h093CTfcIkqCsHOPJD-4" style="edgeStyle=orthogonalEdgeStyle;rounded=0;orthogonalLoop=1;jettySize=auto;html=1;exitX=0.5;exitY=1;exitDx=0;exitDy=0;entryX=0.5;entryY=0;entryDx=0;entryDy=0;" parent="1" source="59h093CTfcIkqCsHOPJD-6" target="59h093CTfcIkqCsHOPJD-7" edge="1">
          <mxGeometry relative="1" as="geometry">
            <Array as="points">
              <mxPoint x="350" y="300" />
              <mxPoint x="350" y="355" />
              <mxPoint x="290" y="355" />
            </Array>
          </mxGeometry>
        </mxCell>
        <mxCell id="59h093CTfcIkqCsHOPJD-5" style="edgeStyle=orthogonalEdgeStyle;rounded=0;orthogonalLoop=1;jettySize=auto;html=1;exitX=0.75;exitY=1;exitDx=0;exitDy=0;" parent="1" source="59h093CTfcIkqCsHOPJD-6" target="59h093CTfcIkqCsHOPJD-13" edge="1">
          <mxGeometry relative="1" as="geometry" />
        </mxCell>
        <mxCell id="59h093CTfcIkqCsHOPJD-6" value="first-lab&lt;br&gt;(OnPush)" style="rounded=0;whiteSpace=wrap;html=1;fontSize=15;fillColor=#d5e8d4;strokeColor=#82b366;" parent="1" vertex="1">
          <mxGeometry x="320" y="240" width="120" height="60" as="geometry" />
        </mxCell>
        <mxCell id="59h093CTfcIkqCsHOPJD-7" value="on-push&lt;br&gt;(OnPush)" style="rounded=0;whiteSpace=wrap;html=1;fontSize=15;fillColor=#fff2cc;strokeColor=#d6b656;" parent="1" vertex="1">
          <mxGeometry x="200" y="410" width="180" height="60" as="geometry" />
        </mxCell>
        <mxCell id="59h093CTfcIkqCsHOPJD-8" style="edgeStyle=orthogonalEdgeStyle;rounded=0;orthogonalLoop=1;jettySize=auto;html=1;entryX=0.5;entryY=0;entryDx=0;entryDy=0;" parent="1" source="59h093CTfcIkqCsHOPJD-9" target="59h093CTfcIkqCsHOPJD-6" edge="1">
          <mxGeometry relative="1" as="geometry" />
        </mxCell>
        <mxCell id="59h093CTfcIkqCsHOPJD-9" value="AppComponent" style="rounded=0;whiteSpace=wrap;html=1;fontSize=15;fillColor=#d5e8d4;strokeColor=#82b366;" parent="1" vertex="1">
          <mxGeometry x="320" y="90" width="120" height="60" as="geometry" />
        </mxCell>
        <mxCell id="59h093CTfcIkqCsHOPJD-10" style="edgeStyle=orthogonalEdgeStyle;rounded=0;orthogonalLoop=1;jettySize=auto;html=1;entryX=0.5;entryY=1;entryDx=0;entryDy=0;" parent="1" source="59h093CTfcIkqCsHOPJD-11" target="59h093CTfcIkqCsHOPJD-13" edge="1">
          <mxGeometry relative="1" as="geometry" />
        </mxCell>
        <mxCell id="59h093CTfcIkqCsHOPJD-11" value="Event" style="shape=note;whiteSpace=wrap;html=1;backgroundOutline=1;darkOpacity=0.05;" parent="1" vertex="1">
          <mxGeometry x="450" y="550" width="120" height="50" as="geometry" />
        </mxCell>
        <mxCell id="59h093CTfcIkqCsHOPJD-12" value="no-event&lt;br style=&quot;border-color: var(--border-color);&quot;&gt;(default)" style="rounded=0;whiteSpace=wrap;html=1;fontSize=15;fillColor=#d5e8d4;strokeColor=#82b366;" parent="1" vertex="1">
          <mxGeometry x="640" y="410" width="120" height="60" as="geometry" />
        </mxCell>
        <mxCell id="59h093CTfcIkqCsHOPJD-13" value="signal&lt;br&gt;(default)" style="rounded=0;whiteSpace=wrap;html=1;fontSize=15;fillColor=#d5e8d4;strokeColor=#82b366;" parent="1" vertex="1">
          <mxGeometry x="420" y="410" width="180" height="60" as="geometry" />
        </mxCell>
      </root>
    </mxGraphModel>
  </diagram>
  <diagram id="b-KfXxAyxs3niiJFywIm" name="Página-4">
    <mxGraphModel dx="1178" dy="648" grid="1" gridSize="10" guides="1" tooltips="1" connect="1" arrows="1" fold="1" page="1" pageScale="1" pageWidth="827" pageHeight="1169" math="0" shadow="0">
      <root>
        <mxCell id="0" />
        <mxCell id="1" parent="0" />
        <mxCell id="5MAgPHorA4ihjjhJjl4y-1" value="default&lt;br&gt;(default)" style="rounded=0;whiteSpace=wrap;html=1;fontSize=15;fillColor=#d5e8d4;strokeColor=#82b366;" parent="1" vertex="1">
          <mxGeometry x="40" y="410" width="120" height="60" as="geometry" />
        </mxCell>
        <mxCell id="5MAgPHorA4ihjjhJjl4y-2" style="edgeStyle=orthogonalEdgeStyle;rounded=0;orthogonalLoop=1;jettySize=auto;html=1;entryX=0.5;entryY=0;entryDx=0;entryDy=0;" parent="1" source="5MAgPHorA4ihjjhJjl4y-6" target="5MAgPHorA4ihjjhJjl4y-1" edge="1">
          <mxGeometry relative="1" as="geometry" />
        </mxCell>
        <mxCell id="5MAgPHorA4ihjjhJjl4y-3" style="edgeStyle=orthogonalEdgeStyle;rounded=0;orthogonalLoop=1;jettySize=auto;html=1;exitX=1;exitY=0.5;exitDx=0;exitDy=0;entryX=0.5;entryY=0;entryDx=0;entryDy=0;" parent="1" source="5MAgPHorA4ihjjhJjl4y-6" target="5MAgPHorA4ihjjhJjl4y-12" edge="1">
          <mxGeometry relative="1" as="geometry" />
        </mxCell>
        <mxCell id="5MAgPHorA4ihjjhJjl4y-4" style="edgeStyle=orthogonalEdgeStyle;rounded=0;orthogonalLoop=1;jettySize=auto;html=1;exitX=0.5;exitY=1;exitDx=0;exitDy=0;entryX=0.5;entryY=0;entryDx=0;entryDy=0;" parent="1" source="5MAgPHorA4ihjjhJjl4y-6" target="5MAgPHorA4ihjjhJjl4y-7" edge="1">
          <mxGeometry relative="1" as="geometry">
            <Array as="points">
              <mxPoint x="350" y="300" />
              <mxPoint x="350" y="355" />
              <mxPoint x="290" y="355" />
            </Array>
          </mxGeometry>
        </mxCell>
        <mxCell id="5MAgPHorA4ihjjhJjl4y-5" style="edgeStyle=orthogonalEdgeStyle;rounded=0;orthogonalLoop=1;jettySize=auto;html=1;exitX=0.75;exitY=1;exitDx=0;exitDy=0;" parent="1" source="5MAgPHorA4ihjjhJjl4y-6" target="5MAgPHorA4ihjjhJjl4y-13" edge="1">
          <mxGeometry relative="1" as="geometry" />
        </mxCell>
        <mxCell id="5MAgPHorA4ihjjhJjl4y-6" value="first-lab&lt;br&gt;(OnPush)" style="rounded=0;whiteSpace=wrap;html=1;fontSize=15;fillColor=#d5e8d4;strokeColor=#82b366;" parent="1" vertex="1">
          <mxGeometry x="320" y="240" width="120" height="60" as="geometry" />
        </mxCell>
        <mxCell id="5MAgPHorA4ihjjhJjl4y-7" value="on-push&lt;br&gt;(OnPush)" style="rounded=0;whiteSpace=wrap;html=1;fontSize=15;fillColor=#fff2cc;strokeColor=#d6b656;" parent="1" vertex="1">
          <mxGeometry x="200" y="410" width="180" height="60" as="geometry" />
        </mxCell>
        <mxCell id="5MAgPHorA4ihjjhJjl4y-8" style="edgeStyle=orthogonalEdgeStyle;rounded=0;orthogonalLoop=1;jettySize=auto;html=1;entryX=0.5;entryY=0;entryDx=0;entryDy=0;" parent="1" source="5MAgPHorA4ihjjhJjl4y-9" target="5MAgPHorA4ihjjhJjl4y-6" edge="1">
          <mxGeometry relative="1" as="geometry" />
        </mxCell>
        <mxCell id="5MAgPHorA4ihjjhJjl4y-9" value="AppComponent" style="rounded=0;whiteSpace=wrap;html=1;fontSize=15;fillColor=#d5e8d4;strokeColor=#82b366;" parent="1" vertex="1">
          <mxGeometry x="320" y="90" width="120" height="60" as="geometry" />
        </mxCell>
        <mxCell id="5MAgPHorA4ihjjhJjl4y-14" style="edgeStyle=orthogonalEdgeStyle;rounded=0;orthogonalLoop=1;jettySize=auto;html=1;entryX=0.5;entryY=1;entryDx=0;entryDy=0;" parent="1" source="5MAgPHorA4ihjjhJjl4y-11" target="5MAgPHorA4ihjjhJjl4y-1" edge="1">
          <mxGeometry relative="1" as="geometry" />
        </mxCell>
        <mxCell id="5MAgPHorA4ihjjhJjl4y-11" value="Event" style="shape=note;whiteSpace=wrap;html=1;backgroundOutline=1;darkOpacity=0.05;" parent="1" vertex="1">
          <mxGeometry x="40" y="550" width="120" height="50" as="geometry" />
        </mxCell>
        <mxCell id="5MAgPHorA4ihjjhJjl4y-12" value="no-event&lt;br style=&quot;border-color: var(--border-color);&quot;&gt;(default)" style="rounded=0;whiteSpace=wrap;html=1;fontSize=15;fillColor=#d5e8d4;strokeColor=#82b366;" parent="1" vertex="1">
          <mxGeometry x="640" y="410" width="120" height="60" as="geometry" />
        </mxCell>
        <mxCell id="5MAgPHorA4ihjjhJjl4y-13" value="signal&lt;br style=&quot;font-size: 15px;&quot;&gt;(default)" style="rounded=0;whiteSpace=wrap;html=1;fontSize=15;fillColor=#d5e8d4;strokeColor=#82b366;" parent="1" vertex="1">
          <mxGeometry x="420" y="410" width="180" height="60" as="geometry" />
        </mxCell>
      </root>
    </mxGraphModel>
  </diagram>
  <diagram id="5pWQllWtLSVksFw_FekD" name="Página-5">
    <mxGraphModel dx="1178" dy="648" grid="1" gridSize="10" guides="1" tooltips="1" connect="1" arrows="1" fold="1" page="1" pageScale="1" pageWidth="827" pageHeight="1169" math="0" shadow="0">
      <root>
        <mxCell id="0" />
        <mxCell id="1" parent="0" />
        <mxCell id="rkiiCiJsKcMx55m3tlHl-1" value="default&lt;br&gt;(default)" style="rounded=0;whiteSpace=wrap;html=1;fontSize=15;fillColor=#d5e8d4;strokeColor=#82b366;" parent="1" vertex="1">
          <mxGeometry x="40" y="410" width="120" height="60" as="geometry" />
        </mxCell>
        <mxCell id="rkiiCiJsKcMx55m3tlHl-2" style="edgeStyle=orthogonalEdgeStyle;rounded=0;orthogonalLoop=1;jettySize=auto;html=1;entryX=0.5;entryY=0;entryDx=0;entryDy=0;" parent="1" source="rkiiCiJsKcMx55m3tlHl-6" target="rkiiCiJsKcMx55m3tlHl-1" edge="1">
          <mxGeometry relative="1" as="geometry" />
        </mxCell>
        <mxCell id="rkiiCiJsKcMx55m3tlHl-3" style="edgeStyle=orthogonalEdgeStyle;rounded=0;orthogonalLoop=1;jettySize=auto;html=1;exitX=1;exitY=0.5;exitDx=0;exitDy=0;entryX=0.5;entryY=0;entryDx=0;entryDy=0;" parent="1" source="rkiiCiJsKcMx55m3tlHl-6" target="rkiiCiJsKcMx55m3tlHl-12" edge="1">
          <mxGeometry relative="1" as="geometry" />
        </mxCell>
        <mxCell id="rkiiCiJsKcMx55m3tlHl-4" style="edgeStyle=orthogonalEdgeStyle;rounded=0;orthogonalLoop=1;jettySize=auto;html=1;exitX=0.5;exitY=1;exitDx=0;exitDy=0;entryX=0.5;entryY=0;entryDx=0;entryDy=0;" parent="1" source="rkiiCiJsKcMx55m3tlHl-6" target="rkiiCiJsKcMx55m3tlHl-7" edge="1">
          <mxGeometry relative="1" as="geometry">
            <Array as="points">
              <mxPoint x="350" y="300" />
              <mxPoint x="350" y="355" />
              <mxPoint x="290" y="355" />
            </Array>
          </mxGeometry>
        </mxCell>
        <mxCell id="rkiiCiJsKcMx55m3tlHl-5" style="edgeStyle=orthogonalEdgeStyle;rounded=0;orthogonalLoop=1;jettySize=auto;html=1;exitX=0.75;exitY=1;exitDx=0;exitDy=0;" parent="1" source="rkiiCiJsKcMx55m3tlHl-6" target="rkiiCiJsKcMx55m3tlHl-13" edge="1">
          <mxGeometry relative="1" as="geometry" />
        </mxCell>
        <mxCell id="rkiiCiJsKcMx55m3tlHl-6" value="first-lab&lt;br&gt;(OnPush)" style="rounded=0;whiteSpace=wrap;html=1;fontSize=15;fillColor=#d5e8d4;strokeColor=#82b366;" parent="1" vertex="1">
          <mxGeometry x="320" y="240" width="120" height="60" as="geometry" />
        </mxCell>
        <mxCell id="rkiiCiJsKcMx55m3tlHl-7" value="on-push&lt;br style=&quot;font-size: 15px;&quot;&gt;(OnPush)" style="rounded=0;whiteSpace=wrap;html=1;fontSize=15;fillColor=#d5e8d4;strokeColor=#82b366;" parent="1" vertex="1">
          <mxGeometry x="200" y="410" width="180" height="60" as="geometry" />
        </mxCell>
        <mxCell id="rkiiCiJsKcMx55m3tlHl-8" style="edgeStyle=orthogonalEdgeStyle;rounded=0;orthogonalLoop=1;jettySize=auto;html=1;entryX=0.5;entryY=0;entryDx=0;entryDy=0;" parent="1" source="rkiiCiJsKcMx55m3tlHl-9" target="rkiiCiJsKcMx55m3tlHl-6" edge="1">
          <mxGeometry relative="1" as="geometry" />
        </mxCell>
        <mxCell id="rkiiCiJsKcMx55m3tlHl-9" value="AppComponent" style="rounded=0;whiteSpace=wrap;html=1;fontSize=15;fillColor=#d5e8d4;strokeColor=#82b366;" parent="1" vertex="1">
          <mxGeometry x="320" y="90" width="120" height="60" as="geometry" />
        </mxCell>
        <mxCell id="rkiiCiJsKcMx55m3tlHl-10" style="edgeStyle=orthogonalEdgeStyle;rounded=0;orthogonalLoop=1;jettySize=auto;html=1;entryX=0.5;entryY=1;entryDx=0;entryDy=0;" parent="1" source="rkiiCiJsKcMx55m3tlHl-11" target="rkiiCiJsKcMx55m3tlHl-7" edge="1">
          <mxGeometry relative="1" as="geometry" />
        </mxCell>
        <mxCell id="rkiiCiJsKcMx55m3tlHl-11" value="Event" style="shape=note;whiteSpace=wrap;html=1;backgroundOutline=1;darkOpacity=0.05;" parent="1" vertex="1">
          <mxGeometry x="230" y="550" width="120" height="50" as="geometry" />
        </mxCell>
        <mxCell id="rkiiCiJsKcMx55m3tlHl-12" value="no-event&lt;br style=&quot;border-color: var(--border-color);&quot;&gt;(default)" style="rounded=0;whiteSpace=wrap;html=1;fontSize=15;fillColor=#d5e8d4;strokeColor=#82b366;" parent="1" vertex="1">
          <mxGeometry x="640" y="410" width="120" height="60" as="geometry" />
        </mxCell>
        <mxCell id="rkiiCiJsKcMx55m3tlHl-13" value="signal&lt;br&gt;(default)" style="rounded=0;whiteSpace=wrap;html=1;fontSize=15;fillColor=#d5e8d4;strokeColor=#82b366;" parent="1" vertex="1">
          <mxGeometry x="420" y="410" width="180" height="60" as="geometry" />
        </mxCell>
      </root>
    </mxGraphModel>
  </diagram>
  <diagram id="oX_3MQ2z9QYXcoAdxzt2" name="Página-7">
    <mxGraphModel dx="938" dy="648" grid="1" gridSize="10" guides="1" tooltips="1" connect="1" arrows="1" fold="1" page="1" pageScale="1" pageWidth="827" pageHeight="1169" math="0" shadow="0">
      <root>
        <mxCell id="0" />
        <mxCell id="1" parent="0" />
        <mxCell id="qkNmJvTh2tjPhTeBiBhB-1" value="card-default (5)&lt;br style=&quot;font-size: 15px;&quot;&gt;(default)" style="rounded=0;whiteSpace=wrap;html=1;fontSize=15;fillColor=#d5e8d4;strokeColor=#82b366;" parent="1" vertex="1">
          <mxGeometry x="70" y="370" width="120" height="60" as="geometry" />
        </mxCell>
        <mxCell id="qkNmJvTh2tjPhTeBiBhB-2" style="edgeStyle=orthogonalEdgeStyle;rounded=0;orthogonalLoop=1;jettySize=auto;html=1;entryX=0.5;entryY=0;entryDx=0;entryDy=0;" parent="1" source="qkNmJvTh2tjPhTeBiBhB-6" target="qkNmJvTh2tjPhTeBiBhB-1" edge="1">
          <mxGeometry relative="1" as="geometry" />
        </mxCell>
        <mxCell id="qkNmJvTh2tjPhTeBiBhB-3" style="edgeStyle=orthogonalEdgeStyle;rounded=0;orthogonalLoop=1;jettySize=auto;html=1;exitX=1;exitY=0.5;exitDx=0;exitDy=0;entryX=0.5;entryY=0;entryDx=0;entryDy=0;" parent="1" source="qkNmJvTh2tjPhTeBiBhB-6" target="qkNmJvTh2tjPhTeBiBhB-12" edge="1">
          <mxGeometry relative="1" as="geometry" />
        </mxCell>
        <mxCell id="qkNmJvTh2tjPhTeBiBhB-4" style="edgeStyle=orthogonalEdgeStyle;rounded=0;orthogonalLoop=1;jettySize=auto;html=1;exitX=0.5;exitY=1;exitDx=0;exitDy=0;entryX=0.5;entryY=0;entryDx=0;entryDy=0;" parent="1" source="qkNmJvTh2tjPhTeBiBhB-6" target="qkNmJvTh2tjPhTeBiBhB-7" edge="1">
          <mxGeometry relative="1" as="geometry">
            <Array as="points">
              <mxPoint x="380" y="260" />
              <mxPoint x="380" y="315" />
              <mxPoint x="320" y="315" />
            </Array>
          </mxGeometry>
        </mxCell>
        <mxCell id="qkNmJvTh2tjPhTeBiBhB-5" style="edgeStyle=orthogonalEdgeStyle;rounded=0;orthogonalLoop=1;jettySize=auto;html=1;exitX=0.75;exitY=1;exitDx=0;exitDy=0;" parent="1" source="qkNmJvTh2tjPhTeBiBhB-6" target="qkNmJvTh2tjPhTeBiBhB-13" edge="1">
          <mxGeometry relative="1" as="geometry" />
        </mxCell>
        <mxCell id="qkNmJvTh2tjPhTeBiBhB-6" value="second-lab&lt;br&gt;(Default)" style="rounded=0;whiteSpace=wrap;html=1;fontSize=15;fillColor=#d5e8d4;strokeColor=#82b366;" parent="1" vertex="1">
          <mxGeometry x="350" y="200" width="120" height="60" as="geometry" />
        </mxCell>
        <mxCell id="qkNmJvTh2tjPhTeBiBhB-29" style="edgeStyle=orthogonalEdgeStyle;rounded=0;orthogonalLoop=1;jettySize=auto;html=1;exitX=0.5;exitY=1;exitDx=0;exitDy=0;" parent="1" source="qkNmJvTh2tjPhTeBiBhB-7" target="qkNmJvTh2tjPhTeBiBhB-21" edge="1">
          <mxGeometry relative="1" as="geometry" />
        </mxCell>
        <mxCell id="qkNmJvTh2tjPhTeBiBhB-30" style="edgeStyle=orthogonalEdgeStyle;rounded=0;orthogonalLoop=1;jettySize=auto;html=1;exitX=0.5;exitY=1;exitDx=0;exitDy=0;" parent="1" source="qkNmJvTh2tjPhTeBiBhB-7" target="qkNmJvTh2tjPhTeBiBhB-20" edge="1">
          <mxGeometry relative="1" as="geometry" />
        </mxCell>
        <mxCell id="qkNmJvTh2tjPhTeBiBhB-7" value="card-onpush (5)&lt;br style=&quot;font-size: 15px;&quot;&gt;(OnPush)" style="rounded=0;whiteSpace=wrap;html=1;fontSize=15;fillColor=#fff2cc;strokeColor=#d6b656;" parent="1" vertex="1">
          <mxGeometry x="230" y="370" width="180" height="60" as="geometry" />
        </mxCell>
        <mxCell id="qkNmJvTh2tjPhTeBiBhB-8" style="edgeStyle=orthogonalEdgeStyle;rounded=0;orthogonalLoop=1;jettySize=auto;html=1;entryX=0.5;entryY=0;entryDx=0;entryDy=0;" parent="1" source="qkNmJvTh2tjPhTeBiBhB-9" target="qkNmJvTh2tjPhTeBiBhB-6" edge="1">
          <mxGeometry relative="1" as="geometry" />
        </mxCell>
        <mxCell id="qkNmJvTh2tjPhTeBiBhB-9" value="AppComponent" style="rounded=0;whiteSpace=wrap;html=1;fontSize=15;fillColor=#d5e8d4;strokeColor=#82b366;" parent="1" vertex="1">
          <mxGeometry x="350" y="50" width="120" height="60" as="geometry" />
        </mxCell>
        <mxCell id="ur8pBSPEGpVJOp-QMqha-1" style="edgeStyle=orthogonalEdgeStyle;rounded=0;orthogonalLoop=1;jettySize=auto;html=1;entryX=0.5;entryY=1;entryDx=0;entryDy=0;" edge="1" parent="1" source="qkNmJvTh2tjPhTeBiBhB-11" target="qkNmJvTh2tjPhTeBiBhB-20">
          <mxGeometry relative="1" as="geometry" />
        </mxCell>
        <mxCell id="ur8pBSPEGpVJOp-QMqha-2" style="edgeStyle=orthogonalEdgeStyle;rounded=0;orthogonalLoop=1;jettySize=auto;html=1;entryX=0.567;entryY=1.033;entryDx=0;entryDy=0;entryPerimeter=0;" edge="1" parent="1" source="qkNmJvTh2tjPhTeBiBhB-11" target="qkNmJvTh2tjPhTeBiBhB-23">
          <mxGeometry relative="1" as="geometry">
            <mxPoint x="740" y="610" as="targetPoint" />
          </mxGeometry>
        </mxCell>
        <mxCell id="qkNmJvTh2tjPhTeBiBhB-11" value="Event" style="shape=note;whiteSpace=wrap;html=1;backgroundOutline=1;darkOpacity=0.05;" parent="1" vertex="1">
          <mxGeometry x="500" y="700" width="120" height="50" as="geometry" />
        </mxCell>
        <mxCell id="qkNmJvTh2tjPhTeBiBhB-26" style="edgeStyle=orthogonalEdgeStyle;rounded=0;orthogonalLoop=1;jettySize=auto;html=1;exitX=0.5;exitY=1;exitDx=0;exitDy=0;entryX=0.5;entryY=0;entryDx=0;entryDy=0;" parent="1" source="qkNmJvTh2tjPhTeBiBhB-12" target="qkNmJvTh2tjPhTeBiBhB-23" edge="1">
          <mxGeometry relative="1" as="geometry" />
        </mxCell>
        <mxCell id="qkNmJvTh2tjPhTeBiBhB-27" style="edgeStyle=orthogonalEdgeStyle;rounded=0;orthogonalLoop=1;jettySize=auto;html=1;exitX=0.5;exitY=1;exitDx=0;exitDy=0;" parent="1" source="qkNmJvTh2tjPhTeBiBhB-12" target="qkNmJvTh2tjPhTeBiBhB-22" edge="1">
          <mxGeometry relative="1" as="geometry" />
        </mxCell>
        <mxCell id="qkNmJvTh2tjPhTeBiBhB-12" value="card-onpush (5)&lt;br style=&quot;font-size: 15px;&quot;&gt;(OnPush)" style="rounded=0;whiteSpace=wrap;html=1;fontSize=15;fillColor=#fff2cc;strokeColor=#d6b656;" parent="1" vertex="1">
          <mxGeometry x="670" y="370" width="120" height="60" as="geometry" />
        </mxCell>
        <mxCell id="qkNmJvTh2tjPhTeBiBhB-13" value="card-default (5)&lt;br style=&quot;font-size: 15px;&quot;&gt;(default)" style="rounded=0;whiteSpace=wrap;html=1;fontSize=15;fillColor=#d5e8d4;strokeColor=#82b366;" parent="1" vertex="1">
          <mxGeometry x="445" y="380" width="180" height="60" as="geometry" />
        </mxCell>
        <mxCell id="qkNmJvTh2tjPhTeBiBhB-14" value="List" style="text;html=1;strokeColor=none;fillColor=none;align=center;verticalAlign=middle;whiteSpace=wrap;rounded=0;" parent="1" vertex="1">
          <mxGeometry x="120" y="290" width="60" height="30" as="geometry" />
        </mxCell>
        <mxCell id="qkNmJvTh2tjPhTeBiBhB-15" value="List" style="text;html=1;strokeColor=none;fillColor=none;align=center;verticalAlign=middle;whiteSpace=wrap;rounded=0;" parent="1" vertex="1">
          <mxGeometry x="280" y="290" width="60" height="30" as="geometry" />
        </mxCell>
        <mxCell id="qkNmJvTh2tjPhTeBiBhB-16" value="Signal" style="text;html=1;strokeColor=none;fillColor=none;align=center;verticalAlign=middle;whiteSpace=wrap;rounded=0;" parent="1" vertex="1">
          <mxGeometry x="530" y="290" width="60" height="30" as="geometry" />
        </mxCell>
        <mxCell id="qkNmJvTh2tjPhTeBiBhB-17" value="Signal" style="text;html=1;strokeColor=none;fillColor=none;align=center;verticalAlign=middle;whiteSpace=wrap;rounded=0;" parent="1" vertex="1">
          <mxGeometry x="670" y="290" width="60" height="30" as="geometry" />
        </mxCell>
        <mxCell id="qkNmJvTh2tjPhTeBiBhB-20" value="card-onpush&lt;br style=&quot;font-size: 15px;&quot;&gt;(on-push)" style="rounded=0;whiteSpace=wrap;html=1;fontSize=15;fillColor=#d5e8d4;strokeColor=#82b366;" parent="1" vertex="1">
          <mxGeometry x="325" y="540" width="120" height="60" as="geometry" />
        </mxCell>
        <mxCell id="qkNmJvTh2tjPhTeBiBhB-21" value="card-onpush&lt;br style=&quot;font-size: 15px;&quot;&gt;(on-push)" style="rounded=0;whiteSpace=wrap;html=1;fontSize=15;fillColor=#fff2cc;strokeColor=#d6b656;" parent="1" vertex="1">
          <mxGeometry x="175" y="540" width="120" height="60" as="geometry" />
        </mxCell>
        <mxCell id="qkNmJvTh2tjPhTeBiBhB-22" value="card-onpush&lt;br style=&quot;font-size: 15px;&quot;&gt;(on-push)" style="rounded=0;whiteSpace=wrap;html=1;fontSize=15;fillColor=#fff2cc;strokeColor=#d6b656;" parent="1" vertex="1">
          <mxGeometry x="810" y="510" width="120" height="60" as="geometry" />
        </mxCell>
        <mxCell id="qkNmJvTh2tjPhTeBiBhB-23" value="card-onpush&lt;br style=&quot;font-size: 15px;&quot;&gt;(on-push)" style="rounded=0;whiteSpace=wrap;html=1;fontSize=15;fillColor=#d5e8d4;strokeColor=#82b366;" parent="1" vertex="1">
          <mxGeometry x="670" y="510" width="120" height="60" as="geometry" />
        </mxCell>
      </root>
    </mxGraphModel>
  </diagram>
</mxfile>
